<svg width="24" height="24" viewBox="0 0 24 24" fill="none" xmlns="http://www.w3.org/2000/svg">
<g clip-path="url(#clip0_204_2)">
<path fill-rule="evenodd" clip-rule="evenodd" d="M18.452 2C18.452 0.89543 17.5468 0 16.4423 0V0C15.3377 0 14.4325 0.895431 14.4325 2V4.81085C14.4325 6.35045 16.1138 7.30429 17.4471 6.53449V6.53449C18.0659 6.17723 18.452 5.51417 18.452 4.79964V2ZM18.452 14.0597C18.452 12.5201 16.7707 11.5662 15.4374 12.336V12.336C14.8186 12.6933 14.4325 13.3563 14.4325 14.0709V22C14.4325 23.1046 15.3377 24 16.4423 24V24C17.5468 24 18.452 23.1046 18.452 22V14.0597Z" fill="#32FFC1"/>
<path fill-rule="evenodd" clip-rule="evenodd" d="M9.56744 2C9.56744 0.895431 8.6623 0 7.55773 0V0C6.45316 0 5.54802 0.895433 5.54802 2V9.94033C5.54802 11.4799 7.22925 12.4338 8.56258 11.664V11.664C9.18138 11.3067 9.56744 10.6437 9.56744 9.92912V2ZM9.56744 19.1891C9.56744 17.6495 7.88621 16.6957 6.55287 17.4655V17.4655C5.93407 17.8228 5.54802 18.4858 5.54802 19.2004V22C5.54802 23.1046 6.45316 24 7.55773 24V24C8.6623 24 9.56744 23.1046 9.56744 22V19.1891Z" fill="#6272FF"/>
</g>
<defs>
<clipPath id="clip0_204_2">
<rect width="24" height="24" fill="white"/>
</clipPath>
</defs>
</svg>
